<?xml version="1.0" standalone="no"?>
<!DOCTYPE svg PUBLIC "-//W3C//DTD SVG 20010904//EN"
 "http://www.w3.org/TR/2001/REC-SVG-20010904/DTD/svg10.dtd">
<svg version="1.0" xmlns="http://www.w3.org/2000/svg"
 width="220.000000pt" height="220.000000pt" viewBox="0 0 220.000000 220.000000"
 preserveAspectRatio="xMidYMid meet">
<g transform="translate(0.000000,220.000000) scale(0.100000,-0.100000)"
fill="#000000" stroke="none">
<path d="M82 2074 c-48 -33 -52 -57 -52 -297 0 -204 2 -225 18 -240 25 -23 48
-21 66 5 13 19 16 59 16 240 l0 218 224 0 c221 0 225 0 240 22 20 28 20 33 0
52 -23 24 -478 24 -512 0z"/>
<path d="M1592 2078 c-16 -16 -15 -55 1 -65 6 -4 113 -10 237 -13 l225 -5 3
-225 c2 -197 4 -227 19 -237 22 -17 38 -16 57 3 14 13 16 50 16 251 l0 235
-34 34 -34 34 -239 0 c-173 0 -242 -3 -251 -12z"/>
<path d="M955 1835 c-113 -21 -233 -73 -220 -96 4 -5 46 -29 94 -54 209 -105
408 -267 500 -409 44 -67 65 -81 75 -48 23 74 33 342 17 487 l-6 60 -59 23
c-124 49 -265 62 -401 37z"/>
<path d="M1468 1573 c7 -245 -25 -427 -106 -591 -47 -94 -39 -105 55 -68 126
50 375 196 413 241 7 9 6 34 -4 86 -34 180 -133 342 -269 445 -95 71 -95 71
-89 -113z"/>
<path d="M561 1623 c-128 -131 -188 -259 -216 -461 -4 -31 -2 -44 9 -48 7 -3
52 20 100 51 190 124 401 206 585 226 53 6 100 14 105 19 30 30 -398 300 -475
300 -15 0 -52 -31 -108 -87z"/>
<path d="M742 1276 c-95 -40 -215 -107 -320 -179 -63 -44 -72 -55 -72 -81 1
-110 86 -305 177 -406 71 -78 148 -140 175 -140 20 0 20 4 13 119 -13 221 26
464 100 617 33 68 39 104 18 104 -4 0 -45 -16 -91 -34z"/>
<path d="M1765 1059 c-64 -49 -224 -136 -319 -174 -104 -42 -222 -71 -328 -80
-90 -8 -96 -17 -43 -64 90 -79 388 -251 435 -251 27 0 115 77 171 149 91 118
148 263 152 388 2 70 -10 75 -68 32z"/>
<path d="M779 964 c-5 -15 -15 -84 -21 -153 -13 -146 1 -378 24 -393 7 -4 42
-17 77 -28 155 -49 306 -50 453 -4 101 32 138 50 138 68 0 8 -39 33 -87 57
-214 106 -440 292 -518 427 -34 58 -51 65 -66 26z"/>
<path d="M47 662 c-15 -16 -17 -48 -17 -241 0 -328 -17 -311 317 -311 235 0
243 1 253 21 9 16 8 26 -5 45 l-15 24 -225 0 -225 0 0 218 c0 181 -3 221 -16
240 -18 27 -45 28 -67 4z"/>
<path d="M2077 668 c-15 -11 -17 -41 -19 -238 l-3 -225 -225 -5 c-124 -3 -231
-9 -237 -13 -16 -10 -17 -49 -1 -65 9 -9 78 -12 251 -12 l239 0 34 34 34 34 0
235 c0 201 -2 238 -16 251 -19 19 -35 20 -57 4z"/>
</g>
</svg>
